<?xml version="1.0" encoding="UTF-8"?>
<svg width="112px" height="91px" viewBox="0 0 112 91" version="1.1" xmlns="http://www.w3.org/2000/svg" xmlns:xlink="http://www.w3.org/1999/xlink">
    <title>twitter</title>
    <g id="Page-1" stroke="none" stroke-width="1" fill="none" fill-rule="evenodd">
        <g id="concept-copy-3" transform="translate(-454.000000, -2131.000000)" fill="#FFFFFF" fill-rule="nonzero">
            <g id="Group-4" transform="translate(370.000000, 2079.000000)">
                <path d="M195.125298,63.3428976 C191.050972,65.1502604 186.671547,66.3712281 182.076167,66.9205263 C186.766791,64.1086942 190.369888,59.6561801 192.065953,54.3503738 C187.675455,56.9545474 182.813177,58.8449697 177.637497,59.8638322 C173.4934,55.4478596 167.588458,52.68919 161.053374,52.68919 C148.505925,52.68919 138.3323,62.8617038 138.3323,75.4091592 C138.3323,77.189944 138.533301,78.9242173 138.92091,80.5870605 C120.037712,79.6396345 103.296336,70.5939483 92.0900109,56.84768 C90.1342477,60.2032636 89.0135029,64.1059305 89.0135029,68.2699608 C89.0135029,76.152814 93.0247032,83.1070704 99.1212312,87.1813903 C95.3968681,87.0634488 91.8934395,86.0412673 88.8302205,84.3396676 C88.8276376,84.4343502 88.8276376,84.5295881 88.8276376,84.6253877 C88.8276376,95.6334816 96.659556,104.815932 107.05356,106.904592 C105.147078,107.423987 103.139819,107.701403 101.067767,107.701403 C99.6037163,107.701403 98.1806434,107.558543 96.7930014,107.29386 C99.684561,116.320162 108.075186,122.889024 118.017906,123.071751 C110.24192,129.166071 100.445386,132.798522 89.7999821,132.798522 C87.9660348,132.798522 86.1575678,132.690544 84.380102,132.480677 C94.4352297,138.927724 106.378009,142.68919 119.20897,142.68919 C161.000399,142.68919 183.854368,108.068529 183.854368,78.0432363 C183.854368,77.0581581 183.83222,76.0786138 183.788479,75.1035056 C188.227148,71.9007456 192.078874,67.8995088 195.125298,63.3428976 L195.125298,63.3428976 Z" id="twitter"></path>
            </g>
        </g>
    </g>
</svg>